<svg id="wave" style="transform:rotate(180deg); transition: 0.3s" viewBox="0 0 1440 260" version="1.1" xmlns="http://www.w3.org/2000/svg"><defs><linearGradient id="sw-gradient-0" x1="0" x2="0" y1="1" y2="0"><stop stop-color="rgba(192.709, 62, 243, 1)" offset="0%"></stop><stop stop-color="rgba(11, 57.986, 255, 1)" offset="100%"></stop></linearGradient></defs><path style="transform:translate(0, 0px); opacity:1" fill="url(#sw-gradient-0)" d="M0,78L48,104C96,130,192,182,288,186.3C384,191,480,147,576,138.7C672,130,768,156,864,164.7C960,173,1056,165,1152,134.3C1248,104,1344,52,1440,60.7C1536,69,1632,139,1728,173.3C1824,208,1920,208,2016,177.7C2112,147,2208,87,2304,78C2400,69,2496,113,2592,125.7C2688,139,2784,121,2880,121.3C2976,121,3072,139,3168,160.3C3264,182,3360,208,3456,195C3552,182,3648,130,3744,125.7C3840,121,3936,165,4032,182C4128,199,4224,191,4320,164.7C4416,139,4512,95,4608,73.7C4704,52,4800,52,4896,65C4992,78,5088,104,5184,134.3C5280,165,5376,199,5472,177.7C5568,156,5664,78,5760,43.3C5856,9,5952,17,6048,39C6144,61,6240,95,6336,125.7C6432,156,6528,182,6624,199.3C6720,217,6816,225,6864,229.7L6912,234L6912,260L6864,260C6816,260,6720,260,6624,260C6528,260,6432,260,6336,260C6240,260,6144,260,6048,260C5952,260,5856,260,5760,260C5664,260,5568,260,5472,260C5376,260,5280,260,5184,260C5088,260,4992,260,4896,260C4800,260,4704,260,4608,260C4512,260,4416,260,4320,260C4224,260,4128,260,4032,260C3936,260,3840,260,3744,260C3648,260,3552,260,3456,260C3360,260,3264,260,3168,260C3072,260,2976,260,2880,260C2784,260,2688,260,2592,260C2496,260,2400,260,2304,260C2208,260,2112,260,2016,260C1920,260,1824,260,1728,260C1632,260,1536,260,1440,260C1344,260,1248,260,1152,260C1056,260,960,260,864,260C768,260,672,260,576,260C480,260,384,260,288,260C192,260,96,260,48,260L0,260Z"></path></svg>